<?xml version="1.0" encoding="UTF-8" standalone="no"?>
<svg width="121px" height="53px" viewBox="0 0 121 53" version="1.1" xmlns="http://www.w3.org/2000/svg" xmlns:xlink="http://www.w3.org/1999/xlink" xmlns:sketch="http://www.bohemiancoding.com/sketch/ns">
    <!-- Generator: Sketch 3.3.2 (12043) - http://www.bohemiancoding.com/sketch -->
    <title>Fill 6 Copy</title>
    <desc>Created with Sketch.</desc>
    <defs></defs>
    <g id="iOS" stroke="none" stroke-width="1" fill="none" fill-rule="evenodd" sketch:type="MSPage">
        <path d="M24.0163178,40.6947038 L8.77715365,18.2577773 L8.77757845,40.6947038 L0,40.6947038 L0,3.62334143 L8.49763729,3.62334143 L23.2380899,25.7810931 L23.2376651,3.62334143 L31.9583208,3.62334143 L31.9583208,40.6947038 L24.0163178,40.6947038 Z M46.0709235,8.13885603 C45.1083337,9.09923426 43.9737012,9.55125172 42.6691499,9.55125172 C41.3671474,9.55125172 40.2337893,9.09923426 39.2690755,8.13885603 C38.3060609,7.17805416 37.851953,6.04737507 37.851953,4.74766602 C37.851953,3.4471097 38.3060609,2.31727787 39.2690755,1.41281932 C40.2337893,0.451593823 41.3671474,0 42.6691499,0 C43.9737012,0 45.1083337,0.451593823 46.0152751,1.356476 C46.9778649,2.31727787 47.4319728,3.4471097 47.4319728,4.74766602 C47.4319728,6.04737507 46.9778649,7.17805416 46.0709235,8.13885603 C46.0709235,8.13885603 46.9778649,7.17805416 46.0709235,8.13885603 Z M38.080069,12.6598779 L47.1473589,12.6598779 L47.1473589,40.6947038 L38.080069,40.6947038 L38.080069,12.6598779 Z M60.6864858,51.586757 C59.7221969,52.5488298 58.5875643,53 57.285137,53 C55.9814353,53 54.8476524,52.5488298 53.8850626,51.586757 C52.9216232,50.6268024 52.4679401,49.4952761 52.4679401,48.195567 C52.4679401,46.8962816 52.9216232,45.7660262 53.8850626,44.861144 C54.8476524,43.9007657 55.9814353,43.4483246 57.285137,43.4483246 C58.5875643,43.4483246 59.7221969,43.9007657 60.6282887,44.8048007 C61.5930024,45.7660262 62.0458359,46.8962816 62.0458359,48.195567 C62.0458359,49.4952761 61.5930024,50.6268024 60.6864858,51.586757 C60.6864858,51.586757 61.5930024,50.6268024 60.6864858,51.586757 Z M52.6935073,12.6598779 L61.7629212,12.6598779 L61.7629212,40.6947038 L52.6935073,40.6947038 L52.6935073,12.6598779 Z M89.3870391,39.7330546 C86.9508289,40.9209243 84.2312791,41.5419717 81.2836134,41.5419717 C76.806254,41.5419717 73.2366856,40.1287288 70.5150118,37.2463232 C67.8506856,34.4766042 66.5474087,31.0294945 66.5474087,26.7901893 C66.5474087,22.5513077 68.0210292,18.9902404 70.9126217,16.1074112 C73.8594379,13.2254292 77.485929,11.8126099 81.7377213,11.8126099 C84.3994987,11.8126099 86.8382577,12.3209707 89.0472016,13.3381159 C90.5216717,14.0172011 91.4855358,14.6950155 91.8810218,15.3169102 L88.3110286,20.7995812 C86.7809101,19.6684784 85.0226757,19.1037743 83.0397238,19.1037743 C80.8312047,19.1037743 79.0729703,19.7820123 77.7136202,21.1939844 C76.3525709,22.6072274 75.6720463,24.4165681 75.6720463,26.6198884 C75.6720463,28.9384372 76.2378757,30.7473543 77.3725083,32.102983 C78.5619396,33.516226 80.2624016,34.2508073 82.5308171,34.2508073 C84.7401858,34.2508073 86.8382577,33.5725693 88.878982,32.2165169 L92.3355544,37.8677942 C90.69244,38.94213 89.6699539,39.563601 89.3870391,39.7330546 Z M120.943077,28.2601992 C120.88488,28.8257506 120.88488,29.2205774 120.88488,29.390031 L102.297042,29.390031 C102.297042,30.6897401 102.806798,31.9339531 103.882809,33.0070179 C105.187785,34.4202609 107.059015,35.0989225 109.493526,35.0989225 C111.931011,35.0989225 114.313272,34.4202609 116.692135,33.1209755 L119.356036,38.4333456 C118.901928,38.8857867 117.825918,39.4509144 116.069807,40.1287288 C113.631048,41.0903779 111.194838,41.5419717 108.758628,41.5419717 C103.882809,41.5419717 100.142047,39.9592752 97.5354934,36.8510727 C95.3269743,34.1948876 94.1927665,30.8596173 94.1927665,26.8469562 C94.1927665,22.4949644 95.494769,18.9343207 98.046524,16.1074112 C100.595305,13.2254292 103.941431,11.8126099 108.02203,11.8126099 C112.158702,11.8126099 115.389282,13.1682386 117.599926,15.8256946 C119.866217,18.5386466 121,22.2115532 121,26.7901893 C121,27.2422067 121,27.7518384 120.943077,28.2601992 C120.943077,28.2601992 121,27.7518384 120.943077,28.2601992 Z M112.271698,20.2899495 C111.422104,18.7640199 110.061055,17.9726716 108.189825,17.9726716 C106.206873,17.9726716 104.677179,18.7640199 103.600319,20.4034834 C102.919369,21.4210522 102.524308,22.4377738 102.466111,23.3989993 L113.065643,23.3989993 C113.065643,22.2687438 112.782304,21.2515986 112.271698,20.2899495 L112.271698,20.2899495 Z" id="Fill-6-Copy" fill="#212121" sketch:type="MSShapeGroup"></path>
    </g>
</svg>